<svg xmlns="http://www.w3.org/2000/svg" width="220" height="220" viewBox="0 0 278 267" fill="currentColor"><text transform="matrix(1 0 0 1 56 52)" fill="#FF4900" font-family="Inter" font-weight="500" font-size="28">보호소 캠페인</text><text text-anchor="start" x="20" y="195" font-family="Inter"><tspan font-weight="500" font-size="30">사료 지원 캠페인</tspan><tspan font-size="15"> </tspan><tspan font-weight="500" font-size="26"></tspan></text><text transform="matrix(1 0 0 1 24.0056 233.878)" font-weight="500" opacity="0.5" font-size="23">유기동물 사료 구매</text><path fill="#FF4900" d="M25.7 54c-.4-.4-.6-1-.6-1.7v-.5c0-.8.2-1.6.5-2.4s.7-1.5 1.2-2.1 1-1.3 1.6-1.9l1.6-1.6c.5-.5 1-.9 1.3-1.2.3-.3.5-.5.6-.8s.2-.6.2-.9c0-.4-.1-.7-.2-.9s-.3-.5-.6-.8c-.4-.3-.8-.7-1.3-1.2s-1.1-1-1.6-1.5-1.1-1.2-1.6-1.8-.9-1.4-1.2-2.1-.5-1.6-.5-2.4v-.5c0-.7.2-1.3.6-1.7s1-.6 1.8-.6h14.3c.8 0 1.4.2 1.8.6s.7 1 .7 1.8v.4c0 .8-.2 1.6-.5 2.4s-.7 1.5-1.2 2.1-1 1.3-1.6 1.8-1 1.1-1.6 1.5-1 .9-1.3 1.2c-.3.3-.5.5-.6.8s-.2.6-.2.9c0 .4.1.7.2.9s.4.5.6.8c.4.3.8.7 1.3 1.2s1.1 1 1.6 1.6 1.1 1.2 1.6 1.9.9 1.4 1.2 2.1.5 1.5.5 2.4v.4c0 .8-.2 1.4-.7 1.8s-1.1.6-1.8.6H27.5c-.8 0-1.4-.2-1.8-.6zm14.5-1.7c.3 0 .5-.1.6-.2s.2-.3.1-.6-.2-.4-.4-.6l-4.9-3.7-.2-.2c-.1-.1-.1-.1-.1-.2v-7.2c0-.4.1-.7.2-.9s.3-.5.6-.7c.3-.2.6-.5 1-.8s.8-.7 1.2-1 .7-.7 1-1c.1-.2.2-.4.2-.5s-.1-.2-.3-.2h-9c-.2 0-.3.1-.3.2s0 .3.2.5c.3.3.6.7 1 1s.8.7 1.2 1 .7.6 1 .8c.3.3.5.5.6.7s.2.6.2.9v7.2c0 .1 0 .2-.1.2s-.1.1-.2.2l-5 3.7c-.2.2-.4.4-.4.6s0 .4.1.6.3.2.6.2h11.1z"></path></svg>