<svg xmlns="http://www.w3.org/2000/svg" width="220" height="220" viewBox="0 0 278 267" fill="currentColor"><text transform="matrix(1 0 0 1 62 51)" fill="#00cfcd" font-family="Inter" font-weight="500" font-size="28">OCR 활용</text><text text-anchor="start" x="20" y="195" font-family="Inter"><tspan font-weight="500" font-size="26">영수증 인증</tspan></text><text transform="matrix(1 0 0 1 24.0056 233.878)" font-weight="500" opacity="0.5" font-size="23">상세내역 확인</text><path fill="#00cfcd" d="M34.1 51.5c-1.4-.4-2.7-.9-3.9-1.5S28 48.7 27 48s-1.7-1.5-2.4-2.3-1.2-1.5-1.5-2.1-.5-1.2-.5-1.6.2-.9.5-1.6.9-1.3 1.5-2.1 1.5-1.5 2.4-2.3 2-1.4 3.2-2.1 2.5-1.1 3.9-1.5 2.9-.6 4.4-.6c1.6 0 3.1.2 4.5.6s2.7.9 3.9 1.5 2.2 1.3 3.2 2.1 1.7 1.5 2.4 2.3 1.2 1.5 1.5 2.1.5 1.2.5 1.6-.2.9-.5 1.6-.8 1.3-1.5 2.1S51 47.2 50 48s-2 1.4-3.2 2.1-2.5 1.1-3.9 1.5-2.9.6-4.5.6c-1.5-.1-2.9-.3-4.3-.7zM41 48c.8-.3 1.5-.8 2-1.4s1.1-1.3 1.4-2 .5-1.6.5-2.5c0-.9-.2-1.7-.5-2.5s-.8-1.5-1.4-2-1.3-1-2-1.4-1.6-.5-2.5-.5-1.7.2-2.5.5-1.5.8-2.1 1.4-1 1.3-1.4 2-.5 1.6-.5 2.5c0 .9.2 1.7.5 2.5s.8 1.4 1.4 2 1.3 1.1 2 1.4 1.6.5 2.5.5 1.8-.2 2.6-.5zm-4.2-4.2c-.5-.5-.7-1-.7-1.7s.2-1.2.7-1.7 1-.7 1.7-.7 1.2.2 1.7.7.7 1 .7 1.7c0 .6-.2 1.2-.7 1.7s-1 .7-1.7.7-1.2-.3-1.7-.7z"></path></svg>