<svg xmlns="http://www.w3.org/2000/svg" width="220" height="220" viewBox="0 0 278 267" fill="currentColor"><text transform="matrix(1 0 0 1 58 50)" fill="#36B535" font-family="Inter" font-weight="500" font-size="28">자동 출금</text><text text-anchor="start" x="20" y="195" font-family="Inter"><tspan font-weight="500" font-size="26">영수증만큼 출금</tspan></text><text transform="matrix(1 0 0 1 24.0056 233.878)" font-weight="500" opacity="0.5" font-size="23">내역 블록체인으로 저장</text><path fill="#36B535" d="M46.6 35.7c-.7-1.6-1.6-3-2.8-4.2-1.2-1.2-2.6-2.2-4.2-2.9-1.6-.7-3.3-1-5.1-1-.4 0-.8.1-1 .4-.2.2-.4.6-.4 1v4.5c0 .4.1.7.3.9.2.2.5.4.9.4s.7-.1.9-.4.3-.5.3-.9v-2.9c1 .1 1.9.3 2.8.7 1.3.5 2.4 1.3 3.4 2.2s1.7 2.1 2.3 3.3.8 2.6.8 4.1c0 1.4-.3 2.8-.8 4-.5 1.2-1.3 2.3-2.2 3.3s-2 1.7-3.3 2.2c-1.2.5-2.6.8-4 .8s-2.8-.3-4-.8c-1.2-.5-2.3-1.3-3.3-2.2-.9-.9-1.7-2-2.2-3.3-.5-1.2-.8-2.6-.8-4 0-1.2.2-2.3.6-3.4.4-1.1.9-2.1 1.6-2.9.3-.4.4-.8.5-1.2s-.1-.7-.4-1c-.3-.3-.7-.4-1.1-.4s-.8.3-1.2.7c-.9 1.1-1.6 2.4-2.1 3.8s-.8 2.9-.8 4.4c0 1.8.3 3.5 1 5.1.7 1.6 1.6 3 2.9 4.2 1.2 1.2 2.6 2.2 4.2 2.9 1.6.7 3.3 1 5.1 1s3.5-.3 5.1-1c1.6-.7 3-1.6 4.2-2.9C45 49 46 47.6 46.6 46s1-3.3 1-5.1-.3-3.6-1-5.2z"></path><path fill="#36B535" d="M32.9 42.5c.3.4.6.7 1 .9.4.2.8.2 1.3.2s.8-.3 1.2-.6c.4-.4.6-.8.7-1.2s0-.9-.2-1.3-.5-.8-.9-1.1l-6.2-4.2c-.3-.2-.6-.3-.8-.2s-.4.2-.5.5c-.1.2 0 .5.2.8l4.2 6.2z"></path></svg>